<svg xmlns="http://www.w3.org/2000/svg" xmlns:xlink="http://www.w3.org/1999/xlink" id="Layer_1" width="3.36in" height="2.28in" viewBox="0 0 241.97 164.46"><defs><linearGradient id="linear-gradient" x1="119.08" y1="14" x2="21.77" y2="135.64" gradientUnits="userSpaceOnUse"><stop offset="0" stop-color="#fafa02"></stop><stop offset="1" stop-color="#f2b90c"></stop></linearGradient></defs><path d="M38.66,40.56s3.06-9.47-8.98-9.57c3.35-3.16,12.33-.59,12.33-.59,0,0,.69-1.48-1.58-2.47,0,0,6.81,.3,6.81,4.14s-8.58,8.48-8.58,8.48Zm22.39,17.07c0-5.13-4.64-4.83-8.19-4.83s-4.44-1.18-4.44-1.18c0,0,0,6.02,6.31,6.02s5.43,4.83,5.43,4.83c0,0,.89-1.97,.89-4.83Zm44.89-1.58c-1.18,3.25-2.17,14.31,6.71,19.63,8.88,5.33,26.65,9.44,23.78,28.71-1.97,13.22-12.92,23.48-12.92,23.48,0,0,6.81-11.64,6.81-21.6s-9.08-19.24-16.58-25.06-12.13-12.43-12.53-16.87c-.4-4.44-2.47-8.19-2.47-8.19l3.55,1.18s-.1-6.02-4.05-9.37c-3.95-3.35-5.43-8.48-3.06-13.91,2.96,5.33,8.68,11.54,15.29,11.54s9.57-8.29,9.57-13.22-6.81-10.46-12.83-10.46-15.39,5.03-18.94,15.39c-9.77,1.48-15.59,7.3-15.59,7.3,0,0-5.82-5.82-15.59-7.3-3.55-10.36-12.92-15.39-18.94-15.39s-12.83,5.52-12.83,10.46,2.96,13.22,9.57,13.22,12.33-6.21,15.29-11.54c2.37,5.43,.89,10.56-3.06,13.91-3.94,3.35-4.05,9.37-4.05,9.37l3.55-1.18s-2.07,3.75-2.47,8.19c-.39,4.44-5.03,11.05-12.53,16.87s-16.58,15.1-16.58,25.06,6.81,21.6,6.81,21.6c0,0-10.95-10.26-12.92-23.48-2.87-19.26,14.9-23.38,23.78-28.71,8.88-5.33,7.89-16.38,6.71-19.63-1.38,5.52-13.12,10.65-20.23,14.4-7.1,3.75-13.81,11.64-16.57,23.77-1.19-17.66,4.54-25.15,6.71-28.02,2.17-2.86-2.27-1.68-6.12,0,2.47-22.79,20.52-24.96,20.52-24.96,0,0-2.07-4.83-2.37-10.46-.3-5.63-4.05-7.2-4.05-7.2,0,0,2.56-.3,3.85-1.19s-2.17-3.25-2.17-3.25h10.85s-.3-1.38-3.26-3.16c8.19-.1,16.47,4.64,17.16,4.05,.69-.59-1.48-4.44-7.4-7.99,5.92-1.19,10.95,1.18,10.95,1.18,0,0-2.76-6.41-1.88-10.85,.39,1.68,4.14,4.54,7.89,5.58,3.75,1.04,6.12,4.68,7.01,4.29,.89-.39-.89-4.24-3.16-8.29,2.56,.79,5.62,4,5.62,4V2.38c1.97,2.37,5.27,3.18,5.27,3.18,0,0,4.11,10.13,2.28,19.01,1.23-1.28,2.31-2.37,2.31-2.37,0,0,1.08,1.09,2.31,2.37-1.83-8.88,2.28-19.01,2.28-19.01,0,0,3.3-.82,5.27-3.18V7.96s3.06-3.21,5.62-4c-2.27,4.05-4.04,7.89-3.16,8.29,.89,.39,3.26-3.25,7.01-4.29,3.75-1.04,7.5-3.9,7.89-5.58,.89,4.44-1.88,10.85-1.88,10.85,0,0,5.03-2.37,10.95-1.18-5.92,3.55-8.09,7.4-7.4,7.99,.69,.59,8.98-4.14,17.16-4.05-2.96,1.78-3.26,3.16-3.26,3.16h10.85s-3.45,2.36-2.17,3.25c1.28,.89,3.85,1.19,3.85,1.19,0,0-3.75,1.58-4.05,7.2-.3,5.62-2.37,10.46-2.37,10.46,0,0,18.05,2.17,20.52,24.96-3.85-1.68-8.29-2.86-6.11,0,2.17,2.86,7.89,10.36,6.71,28.02-2.76-12.13-9.47-20.02-16.57-23.77-7.1-3.75-18.85-8.88-20.23-14.4Zm-81.29-7.17c-15,0-16.18,11.64-16.18,11.64,0,0,1.12-4.87,16.31-4.87s17.1-9.68,17.16-9.99c-.13,.17-2.71,3.22-17.29,3.22ZM58.68,16.59c-5.63-2.66-6.71-4.54-6.71-4.54,0,0-1.58,3.25,5.33,7.79,6.9,4.54,6.51,9.86,6.51,9.86,0,0,3.69-8.94-5.13-13.12Zm34.73-4.54s-1.08,1.87-6.71,4.54c-8.82,4.18-5.13,13.12-5.13,13.12,0,0-.39-5.33,6.51-9.86,6.9-4.54,5.33-7.79,5.33-7.79Zm27.19,43.6c15.19,0,16.31,4.87,16.31,4.87,0,0-1.18-11.64-16.18-11.64s-17.16-3.05-17.29-3.22c.06,.3,2.21,9.99,17.16,9.99Zm-15.65-27.72s-6.81,.3-6.81,4.14,8.58,8.48,8.58,8.48c0,0-3.06-9.47,8.98-9.57-3.35-3.16-12.33-.59-12.33-.59,0,0-.69-1.48,1.58-2.47Zm-14.3,29.69c6.31,0,6.31-6.02,6.31-6.02,0,0-.89,1.18-4.44,1.18s-8.19-.3-8.19,4.83c0,2.86,.89,4.83,.89,4.83,0,0-.89-4.83,5.43-4.83ZM75.88,5.87h-6.38l3.19,4.01,3.19-4.01Zm26.51,77.15c4.08,5.92,11.84,19.53,11.84,30.78s-9.08,27.95-41.53,48.28c-32.46-20.32-41.53-37.03-41.53-48.28s7.76-24.86,11.84-30.78c3.98-5.78,2.95-11.13,2.9-11.37,.06,.12,1.01,2.1,1.84,4.14,.83,2.04,2.09,.38,2.17,.27-.03,.13-.55,2.25,.6,4.99,1.18,2.83,3.35-1.25,5-2.24,3.46-2.07,3.88-7.17,3.88-7.17,0,0,.13,5.36,1.68,8.22,1.84,3.4,2.01,.79,4.05,.79s5.59,1.71,7.6,1.71,5.56-1.71,7.6-1.71,2.21,2.61,4.05-.79c1.54-2.86,1.68-8.22,1.68-8.22,0,0,.42,5.1,3.88,7.17,1.64,.99,3.82,5.06,5,2.24,1.14-2.74,.63-4.86,.6-4.99,.08,.11,1.34,1.76,2.17-.27,.83-2.04,1.78-4.01,1.84-4.14-.05,.24-1.08,5.59,2.9,11.37Zm-42.13,17.12c2.27-.66,10.63-2.58,10.63-6.72,0-3.85-1.58-5.2-3.29-6.32-.06-1.51-.06-3.82-2.24-3.94-2.17-.13-.79,2.24-.79,2.24,0,0-3.88-2.37-4.8-5-.92-2.63-2.43-.99-3.88,0-1.44,.98-2.76,1.97-1.15,3.81,1.52,1.74,4.66,2.54,5,2.63-.32-.05-2.96-.51-4.44-1.37-1.58-.92-2.3-.73-2.3,.59s5.92,3.82,10.59,4.8c-1.84-.07-7.24-1.31-9.54-2.5-2.3-1.19-1.64,2.43,0,3.29,1.65,.85,8.65,1.84,8.65,1.84,0,0-4.51,.13-6.67-.59-2.17-.73-1.6,1.43-.39,2.7,.76,.79,5.2,1.12,5.2,1.12,0,0-1.39,.12-3.26,.36-1.96,.26,.45,3.72,2.69,3.08Zm23.65,1.1c-2.89-1.05-6.87-2.24-11.22-2.24s-8.32,1.18-11.22,2.24c-2.89,1.05-5.26,4.64-1.64,9.34,1.18-1.87,2.96-2.86,2.96-2.86,0,0-.23,4.97,2.27,6.64,.96-2.17,2.04-3.91,2.04-3.91,0,0,3.09,7.56,5.59,7.56s5.59-7.56,5.59-7.56c0,0,1.08,1.74,2.04,3.91,2.5-1.67,2.27-6.64,2.27-6.64,0,0,1.78,.99,2.96,2.86,3.62-4.7,1.25-8.29-1.64-9.34Zm7.43-12.89c-2.3,1.18-7.7,2.43-9.54,2.5,4.67-.99,10.59-3.48,10.59-4.8s-.72-1.51-2.3-.59c-1.48,.86-4.12,1.32-4.44,1.37,.34-.08,3.48-.89,5-2.63,1.61-1.84,.29-2.83-1.15-3.81-1.45-.99-2.96-2.63-3.88,0-.92,2.63-4.8,5-4.8,5,0,0,1.38-2.37-.79-2.24-2.17,.13-2.17,2.43-2.24,3.94-1.71,1.12-3.29,2.47-3.29,6.32,0,4.14,8.36,6.06,10.63,6.72,2.24,.65,4.65-2.82,2.69-3.08-1.86-.24-3.26-.36-3.26-.36,0,0,4.44-.33,5.2-1.12,1.21-1.26,1.78-3.42-.39-2.7-2.17,.72-6.67,.59-6.67,.59,0,0,7-.99,8.65-1.84,1.64-.86,2.3-4.47,0-3.29Z" fill="url(#linear-gradient)"></path></svg>