<svg xmlns="http://www.w3.org/2000/svg" width="31" height="32" viewBox="0 0 31 32" fill="none"><g clip-path="url(#clip0_1304_275)"><path d="M14.2083 26.4089C11.2582 26.0754 8.54738 24.6258 6.63184 22.3574C4.71629 20.089 3.74114 17.1738 3.90633 14.2094C4.07152 11.245 5.36454 8.45614 7.52026 6.41464C9.67598 4.37315 12.531 3.23371 15.5 3.22998C18.4726 3.22782 21.3332 4.3645 23.4936 6.40637C25.654 8.44824 26.9501 11.2401 27.1155 14.2082C27.2809 17.1762 26.303 20.0948 24.3828 22.3641C22.4627 24.6334 19.7461 26.0808 16.7917 26.4089V31.6467H14.2083V26.4089ZM15.5 23.8967C16.6874 23.8967 17.8631 23.6628 18.9601 23.2084C20.0571 22.754 21.0538 22.088 21.8934 21.2484C22.733 20.4088 23.399 19.4121 23.8534 18.3151C24.3078 17.2181 24.5417 16.0424 24.5417 14.855C24.5417 13.6676 24.3078 12.4919 23.8534 11.3949C23.399 10.2979 22.733 9.30116 21.8934 8.46156C21.0538 7.62196 20.0571 6.95596 18.9601 6.50157C17.8631 6.04719 16.6874 5.81332 15.5 5.81332C13.102 5.81332 10.8022 6.76592 9.10659 8.46156C7.41094 10.1572 6.45834 12.457 6.45834 14.855C6.45834 17.253 7.41094 19.5528 9.10659 21.2484C10.8022 22.944 13.102 23.8967 15.5 23.8967Z" fill="#FFD200"></path></g><defs><clipPath id="clip0_1304_275"><rect width="31" height="31" fill="white" transform="translate(0 0.646729)"></rect></clipPath></defs></svg>