<svg xmlns="http://www.w3.org/2000/svg" width="48" height="49" viewBox="0 0 48 49" fill="none"><g clip-path="url(#clip0_1304_179)"><path d="M14 40.6626C17.3137 40.6626 20 37.9763 20 34.6626C20 31.3489 17.3137 28.6626 14 28.6626C10.6863 28.6626 8 31.3489 8 34.6626C8 37.9763 10.6863 40.6626 14 40.6626Z" stroke="#FFD200" stroke-width="2" stroke-linecap="round" stroke-linejoin="round"></path><path d="M34 40.6626C37.3137 40.6626 40 37.9763 40 34.6626C40 31.3489 37.3137 28.6626 34 28.6626C30.6863 28.6626 28 31.3489 28 34.6626C28 37.9763 30.6863 40.6626 34 40.6626Z" stroke="#FFD200" stroke-width="2" stroke-linecap="round" stroke-linejoin="round"></path><path d="M18.3 30.3626L36 8.6626" stroke="#FFD200" stroke-width="2" stroke-linecap="round" stroke-linejoin="round"></path><path d="M12 8.6626L29.7 30.3626" stroke="#FFD200" stroke-width="2" stroke-linecap="round" stroke-linejoin="round"></path></g><defs><clipPath id="clip0_1304_179"><rect width="48" height="48" fill="white" transform="translate(0 0.662598)"></rect></clipPath></defs></svg>