<svg xmlns="http://www.w3.org/2000/svg" width="48" height="49" viewBox="0 0 48 49" fill="none"><g clip-path="url(#clip0_1304_221)"><path d="M25.9293 26.9555L22.3964 23.4226L35.8293 9.98974L37.2489 8.57018C38.1864 7.63384 39.4572 7.10791 40.7822 7.10791C42.1072 7.10791 43.378 7.63384 44.3155 8.57018L45.7351 9.98974C45.8334 10.088 45.8774 10.1703 45.8976 10.2409C45.9172 10.3091 45.9318 10.4252 45.8815 10.6201C45.771 11.0479 45.3725 11.7581 44.3151 12.8155L16.0351 41.0955C15.6432 41.4875 15.0074 41.4863 14.6168 41.093L13.9072 41.7976L14.6168 41.093C14.2282 40.7017 14.2293 40.0697 14.6193 39.6797L25.9293 28.3697L26.6364 27.6626L25.9293 26.9555Z" stroke="#FFD200" stroke-width="2"></path><path d="M12.8103 40.7372C13.2699 42.0252 14.6816 42.7238 15.9811 42.2978C17.262 41.8779 17.9914 40.5302 17.6425 39.2283L8.1923 3.95958C6.10284 -0.171602 0.651896 6.66632 12.8103 40.7372Z" fill="#FFD200"></path></g><defs><clipPath id="clip0_1304_221"><rect width="48" height="48" fill="white" transform="translate(0 0.662598)"></rect></clipPath></defs></svg>